<?xml version="1.0" encoding="UTF-8"?>
<svg xmlns="http://www.w3.org/2000/svg" xmlns:xlink="http://www.w3.org/1999/xlink" width="461pt" height="370pt" viewBox="0 0 461 370" version="1.1">
<g id="surface1">
<path style="fill:none;stroke-width:1;stroke-linecap:square;stroke-linejoin:miter;stroke:rgb(0%,0%,0%);stroke-opacity:1;stroke-miterlimit:10;" d="M 201 367 L 200 368 L 201 368 L 202 367 L 203 367 L 204 368 L 205 368 L 204 367 "/>
<path style="fill:none;stroke-width:1;stroke-linecap:square;stroke-linejoin:miter;stroke:rgb(0%,0%,0%);stroke-opacity:1;stroke-miterlimit:10;" d="M 65 366 L 64 367 L 63 367 L 63 368 L 65 366 L 66 367 L 71 367 L 72 368 L 81 368 L 72 368 L 71 367 L 66 367 "/>
<path style="fill:none;stroke-width:1;stroke-linecap:square;stroke-linejoin:miter;stroke:rgb(0%,0%,0%);stroke-opacity:1;stroke-miterlimit:10;" d="M 201 364 L 200 365 L 199 365 L 197 367 L 197 368 L 200 365 L 201 365 L 202 364 L 204 364 L 208 368 L 208 367 L 206 365 L 205 365 L 204 364 "/>
<path style="fill:none;stroke-width:1;stroke-linecap:square;stroke-linejoin:miter;stroke:rgb(0%,0%,0%);stroke-opacity:1;stroke-miterlimit:10;" d="M 67 364 L 69 364 L 70 365 L 80 365 L 81 366 L 82 366 L 84 368 L 84 367 L 83 366 L 81 366 L 80 365 L 71 365 L 70 364 "/>
<path style="fill:none;stroke-width:1;stroke-linecap:square;stroke-linejoin:miter;stroke:rgb(0%,0%,0%);stroke-opacity:1;stroke-miterlimit:10;" d="M 233 355 L 233 356 L 232 357 L 232 361 L 231 362 L 231 365 L 230 366 L 230 368 L 230 366 L 231 365 L 231 362 L 232 361 L 232 358 L 233 357 "/>
<path style="fill:none;stroke-width:1;stroke-linecap:square;stroke-linejoin:miter;stroke:rgb(0%,0%,0%);stroke-opacity:1;stroke-miterlimit:10;" d="M 175 354 L 174 355 L 173 355 L 171 357 L 171 358 L 170 359 L 170 361 L 171 362 L 171 364 L 173 364 L 173 363 L 174 362 L 173 361 L 173 359 L 175 357 L 176 357 L 178 359 L 178 364 L 180 364 L 181 363 L 181 357 L 179 355 L 178 355 L 177 354 "/>
<path style="fill:none;stroke-width:1;stroke-linecap:square;stroke-linejoin:miter;stroke:rgb(0%,0%,0%);stroke-opacity:1;stroke-miterlimit:10;" d="M 175 354 L 177 354 L 181 358 L 181 362 L 179 364 L 178 363 L 178 358 L 177 357 L 175 357 L 173 359 L 173 361 L 174 362 L 172 364 L 171 363 L 171 362 L 170 361 L 170 359 "/>
<path style="fill:none;stroke-width:1;stroke-linecap:square;stroke-linejoin:miter;stroke:rgb(0%,0%,0%);stroke-opacity:1;stroke-miterlimit:10;" d="M 17 350 L 16 351 L 15 351 L 13 353 L 13 359 L 14 360 L 16 360 L 16 357 L 15 356 L 18 353 L 21 356 L 19 358 L 20 359 L 20 361 L 22 361 L 22 360 L 23 359 L 23 357 L 24 356 L 23 355 L 23 353 L 21 351 L 20 351 L 19 350 "/>
<path style="fill:none;stroke-width:1;stroke-linecap:square;stroke-linejoin:miter;stroke:rgb(0%,0%,0%);stroke-opacity:1;stroke-miterlimit:10;" d="M 17 351 L 18 350 L 19 350 L 23 354 L 23 355 L 24 356 L 23 357 L 23 358 L 22 359 L 22 360 L 21 361 L 20 360 L 20 357 L 21 356 L 20 355 L 20 354 L 19 353 L 18 353 L 17 354 L 16 354 L 15 355 L 15 357 L 16 358 L 16 359 L 15 360 L 13 358 L 13 354 L 16 351 "/>
<path style="fill:none;stroke-width:1;stroke-linecap:square;stroke-linejoin:miter;stroke:rgb(0%,0%,0%);stroke-opacity:1;stroke-miterlimit:10;" d="M 227 344 L 226 345 L 224 345 L 222 347 L 222 348 L 221 349 L 221 351 L 222 352 L 222 354 L 223 355 L 225 355 L 225 352 L 224 351 L 224 350 L 227 347 L 230 350 L 230 351 L 229 352 L 229 355 L 230 354 L 231 354 L 232 353 L 232 347 L 230 345 L 228 345 "/>
<path style="fill:none;stroke-width:1;stroke-linecap:square;stroke-linejoin:miter;stroke:rgb(0%,0%,0%);stroke-opacity:1;stroke-miterlimit:10;" d="M 226 345 L 227 344 L 228 345 L 229 345 L 232 348 L 232 353 L 231 354 L 230 354 L 229 353 L 229 352 L 230 351 L 230 349 L 228 347 L 227 347 L 226 348 L 225 348 L 224 349 L 224 352 L 225 353 L 225 354 L 224 355 L 222 353 L 222 352 L 221 351 L 221 349 L 225 345 "/>
<path style="fill:none;stroke-width:1;stroke-linecap:square;stroke-linejoin:miter;stroke:rgb(0%,0%,0%);stroke-opacity:1;stroke-miterlimit:10;" d="M 165 342 L 165 344 L 166 345 L 168 343 L 168 342 "/>
<path style="fill:none;stroke-width:1;stroke-linecap:square;stroke-linejoin:miter;stroke:rgb(0%,0%,0%);stroke-opacity:1;stroke-miterlimit:10;" d="M 165 343 L 166 342 L 167 342 L 168 343 L 166 345 L 165 344 "/>
<path style="fill:none;stroke-width:1;stroke-linecap:square;stroke-linejoin:miter;stroke:rgb(0%,0%,0%);stroke-opacity:1;stroke-miterlimit:10;" d="M 45 336 L 44 337 L 43 337 L 41 339 L 41 341 L 40 342 L 40 343 L 41 344 L 41 346 L 42 347 L 44 347 L 44 344 L 43 343 L 43 342 L 46 339 L 49 342 L 49 343 L 48 344 L 48 346 L 51 346 L 51 344 L 52 343 L 52 342 L 51 341 L 51 338 L 50 337 L 48 337 L 47 336 "/>
<path style="fill:none;stroke-width:1;stroke-linecap:square;stroke-linejoin:miter;stroke:rgb(0%,0%,0%);stroke-opacity:1;stroke-miterlimit:10;" d="M 45 336 L 47 336 L 48 337 L 49 337 L 51 339 L 51 341 L 52 342 L 52 343 L 51 344 L 51 345 L 50 346 L 49 346 L 48 345 L 48 344 L 49 343 L 49 342 L 48 341 L 48 340 L 47 339 L 45 339 L 43 341 L 43 343 L 44 344 L 44 346 L 43 347 L 41 345 L 41 344 L 40 343 L 40 342 L 41 341 L 41 340 "/>
<path style="fill:none;stroke-width:1;stroke-linecap:square;stroke-linejoin:miter;stroke:rgb(0%,0%,0%);stroke-opacity:1;stroke-miterlimit:10;" d="M 413 335 L 413 336 L 412 337 L 412 350 L 411 351 L 411 365 L 410 366 L 410 368 L 410 366 L 411 365 L 411 351 L 412 350 L 412 338 L 413 337 L 413 336 L 414 335 L 418 335 L 419 336 L 429 336 L 430 337 L 439 337 L 440 338 L 448 338 L 449 339 L 459 339 L 449 339 L 448 338 L 440 338 L 439 337 L 430 337 L 429 336 L 419 336 L 418 335 "/>
<path style="fill:none;stroke-width:1;stroke-linecap:square;stroke-linejoin:miter;stroke:rgb(0%,0%,0%);stroke-opacity:1;stroke-miterlimit:10;" d="M 73 333 L 72 334 L 71 334 L 70 335 L 70 342 L 71 343 L 74 343 L 74 341 L 73 340 L 73 337 L 74 336 L 76 336 L 78 338 L 78 339 L 77 340 L 77 343 L 79 343 L 80 342 L 80 341 L 81 340 L 81 337 L 80 336 L 80 335 L 79 334 L 78 334 L 77 333 "/>
<path style="fill:none;stroke-width:1;stroke-linecap:square;stroke-linejoin:miter;stroke:rgb(0%,0%,0%);stroke-opacity:1;stroke-miterlimit:10;" d="M 73 334 L 74 333 L 77 333 L 81 337 L 81 340 L 78 343 L 77 342 L 77 341 L 78 340 L 78 337 L 77 336 L 73 336 L 73 341 L 74 342 L 73 343 L 72 343 L 70 341 L 70 336 L 72 334 "/>
<path style="fill:none;stroke-width:1;stroke-linecap:square;stroke-linejoin:miter;stroke:rgb(0%,0%,0%);stroke-opacity:1;stroke-miterlimit:10;" d="M 1 330 L 5 334 L 5 338 L 3 340 L 2 340 L 1 339 L 2 338 L 2 334 L 1 333 L 1 334 L 2 335 L 2 337 L 1 338 L 1 340 L 4 340 L 5 339 L 5 333 L 3 331 L 2 331 "/>
<path style="fill:none;stroke-width:1;stroke-linecap:square;stroke-linejoin:miter;stroke:rgb(0%,0%,0%);stroke-opacity:1;stroke-miterlimit:10;" d="M 107 329 L 108 330 L 108 341 L 107 342 L 107 350 L 106 351 L 107 352 L 106 353 L 106 366 L 105 367 L 105 368 L 105 367 L 106 366 L 106 353 L 107 352 L 107 342 L 108 341 L 108 331 L 109 330 L 115 330 L 116 331 L 122 331 L 123 332 L 129 332 L 130 333 L 136 333 L 138 335 L 138 339 L 139 340 L 140 340 L 141 341 L 146 341 L 147 342 L 151 342 L 152 343 L 152 346 L 151 347 L 151 354 L 150 355 L 150 363 L 149 364 L 149 368 L 149 364 L 150 363 L 150 355 L 151 354 L 151 347 L 152 346 L 152 338 L 153 337 L 153 336 L 150 336 L 149 335 L 144 335 L 143 334 L 142 334 L 141 333 L 140 334 L 138 334 L 137 333 L 130 333 L 129 332 L 123 332 L 122 331 L 116 331 L 115 330 L 108 330 "/>
<path style="fill:none;stroke-width:1;stroke-linecap:square;stroke-linejoin:miter;stroke:rgb(0%,0%,0%);stroke-opacity:1;stroke-miterlimit:10;" d="M 141 335 L 142 334 L 143 334 L 144 335 L 149 335 L 150 336 L 152 336 L 153 337 L 151 339 L 147 339 L 146 338 L 142 338 L 141 337 "/>
<path style="fill:none;stroke-width:1;stroke-linecap:square;stroke-linejoin:miter;stroke:rgb(0%,0%,0%);stroke-opacity:1;stroke-miterlimit:10;" d="M 138 335 L 139 334 L 140 334 L 141 335 L 141 336 L 140 337 L 141 338 L 146 338 L 147 339 L 151 339 L 152 340 L 152 341 L 151 342 L 147 342 L 146 341 L 141 341 L 138 338 "/>
<path style="fill:none;stroke-width:1;stroke-linecap:square;stroke-linejoin:miter;stroke:rgb(0%,0%,0%);stroke-opacity:1;stroke-miterlimit:10;" d="M 203 328 L 202 329 L 201 329 L 199 331 L 199 337 L 200 338 L 202 338 L 203 337 L 203 336 L 202 335 L 202 333 L 204 331 L 205 331 L 207 333 L 207 338 L 209 338 L 210 337 L 210 331 L 208 329 L 206 329 L 205 328 "/>
<path style="fill:none;stroke-width:1;stroke-linecap:square;stroke-linejoin:miter;stroke:rgb(0%,0%,0%);stroke-opacity:1;stroke-miterlimit:10;" d="M 203 328 L 205 328 L 206 329 L 207 329 L 210 332 L 210 336 L 208 338 L 207 337 L 207 332 L 206 331 L 203 331 L 201 333 L 202 334 L 201 335 L 203 337 L 202 338 L 201 338 L 199 336 L 199 332 "/>
<path style="fill:none;stroke-width:1;stroke-linecap:square;stroke-linejoin:miter;stroke:rgb(0%,0%,0%);stroke-opacity:1;stroke-miterlimit:10;" d="M 20 321 L 19 322 L 18 322 L 17 323 L 17 325 L 16 326 L 16 328 L 17 329 L 17 330 L 18 331 L 18 330 L 16 328 L 16 326 L 17 325 L 17 324 L 19 322 L 20 322 L 21 321 L 24 321 L 27 324 L 27 325 L 28 326 L 28 327 L 27 328 L 27 329 L 25 331 L 24 330 L 24 328 L 25 327 L 24 326 L 24 325 L 23 324 L 20 324 L 19 325 L 19 328 L 20 329 L 20 331 L 20 329 L 19 328 L 19 326 L 21 324 L 22 324 L 25 327 L 24 328 L 24 331 L 26 331 L 27 330 L 27 328 L 28 327 L 28 326 L 27 325 L 27 323 L 26 322 L 25 322 L 24 321 "/>
<path style="fill:none;stroke-width:1;stroke-linecap:square;stroke-linejoin:miter;stroke:rgb(0%,0%,0%);stroke-opacity:1;stroke-miterlimit:10;" d="M 229 312 L 228 313 L 227 313 L 227 314 L 226 315 L 226 317 L 225 318 L 226 319 L 226 321 L 227 322 L 229 322 L 229 321 L 230 320 L 228 318 L 229 317 L 229 316 L 230 315 L 232 315 L 234 317 L 234 319 L 233 320 L 233 322 L 233 320 L 234 319 L 234 316 L 233 315 L 229 315 L 229 316 L 228 317 L 228 319 L 229 320 L 229 321 L 228 322 L 226 320 L 226 319 L 225 318 L 226 317 L 226 316 L 227 315 L 227 314 L 228 313 L 229 313 L 230 312 L 233 312 L 237 316 L 237 319 L 235 321 L 235 322 L 237 320 L 237 316 L 236 315 L 236 314 L 234 312 "/>
<path style="fill:none;stroke-width:1;stroke-linecap:square;stroke-linejoin:miter;stroke:rgb(0%,0%,0%);stroke-opacity:1;stroke-miterlimit:10;" d="M 416 311 L 416 314 L 415 315 L 415 323 L 414 324 L 414 330 L 414 324 L 415 323 L 415 315 L 416 314 L 416 312 L 417 311 L 422 311 L 423 312 L 431 312 L 432 313 L 439 313 L 440 314 L 448 314 L 449 315 L 456 315 L 457 316 L 459 316 L 457 316 L 456 315 L 449 315 L 448 314 L 440 314 L 439 313 L 432 313 L 431 312 L 423 312 L 422 311 "/>
<path style="fill:none;stroke-width:1;stroke-linecap:square;stroke-linejoin:miter;stroke:rgb(0%,0%,0%);stroke-opacity:1;stroke-miterlimit:10;" d="M 414 308 L 414 309 L 413 310 L 413 314 L 412 315 L 412 323 L 411 324 L 411 331 L 410 332 L 410 337 L 409 338 L 409 351 L 408 352 L 408 365 L 407 366 L 407 368 L 407 366 L 408 365 L 408 352 L 409 351 L 409 338 L 410 337 L 410 332 L 411 331 L 412 332 L 418 332 L 419 333 L 429 333 L 430 334 L 438 334 L 439 335 L 448 335 L 449 336 L 459 336 L 449 336 L 448 335 L 439 335 L 438 334 L 430 334 L 429 333 L 419 333 L 418 332 L 412 332 L 411 331 L 411 324 L 412 323 L 412 315 L 413 314 L 413 310 L 415 308 L 422 308 L 423 309 L 431 309 L 432 310 L 437 310 L 438 311 L 439 310 L 440 311 L 448 311 L 449 312 L 453 312 L 454 313 L 455 312 L 456 313 L 459 313 L 456 313 L 455 312 L 449 312 L 448 311 L 440 311 L 439 310 L 432 310 L 431 309 L 423 309 L 422 308 "/>
<path style="fill:none;stroke-width:1;stroke-linecap:square;stroke-linejoin:miter;stroke:rgb(0%,0%,0%);stroke-opacity:1;stroke-miterlimit:10;" d="M 182 307 L 180 309 L 180 315 L 181 316 L 181 317 L 182 317 L 183 316 L 183 311 L 184 310 L 186 310 L 188 312 L 188 313 L 187 314 L 188 315 L 188 316 L 190 316 L 190 314 L 191 313 L 191 311 L 190 310 L 190 309 L 188 307 "/>
<path style="fill:none;stroke-width:1;stroke-linecap:square;stroke-linejoin:miter;stroke:rgb(0%,0%,0%);stroke-opacity:1;stroke-miterlimit:10;" d="M 183 307 L 187 307 L 191 311 L 191 313 L 190 314 L 190 315 L 189 316 L 187 314 L 188 313 L 188 312 L 187 311 L 187 310 L 183 310 L 182 311 L 183 312 L 183 316 L 182 317 L 181 316 L 181 315 L 180 314 L 180 310 "/>
<path style="fill:none;stroke-width:1;stroke-linecap:square;stroke-linejoin:miter;stroke:rgb(0%,0%,0%);stroke-opacity:1;stroke-miterlimit:10;" d="M 208 296 L 207 297 L 206 297 L 206 298 L 205 299 L 205 301 L 204 302 L 205 303 L 205 305 L 206 306 L 208 306 L 208 303 L 207 302 L 208 301 L 208 300 L 209 299 L 210 299 L 212 301 L 212 305 L 212 300 L 211 299 L 208 299 L 208 301 L 207 302 L 208 303 L 208 305 L 207 306 L 205 304 L 205 303 L 204 302 L 205 301 L 205 300 L 206 299 L 206 298 L 207 297 L 208 297 L 209 296 L 211 296 L 212 297 L 213 297 L 214 298 L 214 299 L 215 300 L 215 304 L 214 305 L 214 306 L 215 305 L 215 299 L 214 298 L 214 297 L 212 297 L 211 296 "/>
<path style="fill:none;stroke-width:1;stroke-linecap:square;stroke-linejoin:miter;stroke:rgb(0%,0%,0%);stroke-opacity:1;stroke-miterlimit:10;" d="M 388 274 L 388 281 L 387 282 L 387 291 L 386 292 L 386 293 L 384 295 L 378 295 L 377 294 L 373 294 L 373 295 L 372 296 L 373 297 L 372 298 L 372 309 L 371 310 L 371 320 L 370 321 L 371 322 L 370 323 L 370 334 L 369 335 L 369 346 L 368 347 L 368 357 L 367 358 L 367 368 L 367 359 L 368 358 L 368 347 L 369 346 L 369 335 L 370 334 L 370 323 L 371 322 L 371 310 L 372 309 L 372 298 L 373 297 L 373 295 L 374 294 L 377 294 L 378 295 L 385 295 L 386 294 L 386 292 L 387 291 L 387 282 L 388 281 "/>
<path style="fill:none;stroke-width:1;stroke-linecap:square;stroke-linejoin:miter;stroke:rgb(0%,0%,0%);stroke-opacity:1;stroke-miterlimit:10;" d="M 22 272 L 21 273 L 22 274 L 21 275 L 21 282 L 20 283 L 20 289 L 30 289 L 31 290 L 34 290 L 34 289 L 35 288 L 35 280 L 36 279 L 36 273 L 27 273 L 26 272 "/>
<path style="fill:none;stroke-width:1;stroke-linecap:square;stroke-linejoin:miter;stroke:rgb(0%,0%,0%);stroke-opacity:1;stroke-miterlimit:10;" d="M 22 273 L 23 272 L 26 272 L 27 273 L 35 273 L 36 274 L 36 279 L 35 280 L 35 287 L 34 288 L 34 289 L 33 290 L 31 290 L 30 289 L 21 289 L 20 288 L 20 283 L 21 282 L 21 275 L 22 274 "/>
<path style="fill:none;stroke-width:1;stroke-linecap:square;stroke-linejoin:miter;stroke:rgb(0%,0%,0%);stroke-opacity:1;stroke-miterlimit:10;" d="M 1 261 L 8 261 L 9 262 L 9 270 L 8 271 L 8 278 L 7 279 L 7 288 L 6 289 L 6 297 L 5 298 L 5 302 L 6 303 L 6 304 L 7 304 L 8 305 L 14 305 L 15 306 L 23 306 L 24 307 L 33 307 L 34 308 L 37 308 L 38 309 L 38 312 L 39 313 L 39 314 L 40 314 L 41 315 L 46 315 L 47 316 L 53 316 L 54 317 L 54 319 L 55 320 L 55 321 L 56 321 L 57 322 L 61 322 L 62 323 L 68 323 L 69 324 L 75 324 L 76 325 L 81 325 L 82 326 L 84 326 L 85 327 L 85 331 L 84 332 L 84 345 L 83 346 L 83 351 L 80 354 L 79 354 L 78 355 L 77 355 L 75 357 L 74 357 L 73 358 L 72 358 L 71 359 L 70 359 L 69 360 L 68 360 L 66 362 L 65 362 L 63 364 L 62 364 L 61 365 L 61 367 L 60 368 L 61 367 L 61 366 L 63 364 L 64 364 L 67 361 L 68 361 L 69 360 L 70 360 L 71 359 L 72 359 L 73 358 L 74 358 L 76 356 L 77 356 L 78 355 L 79 355 L 80 354 L 81 354 L 83 352 L 83 346 L 84 345 L 84 332 L 85 331 L 85 326 L 83 326 L 1 261 "/>
<path style="fill:none;stroke-width:1;stroke-linecap:square;stroke-linejoin:miter;stroke:rgb(0%,0%,0%);stroke-opacity:1;stroke-miterlimit:10;" d="M 228 217 L 227 218 L 228 219 L 228 221 L 227 222 L 227 233 L 226 234 L 226 245 L 225 246 L 225 257 L 224 258 L 224 268 L 228 268 L 229 269 L 230 268 L 231 269 L 236 269 L 236 261 L 237 260 L 237 251 L 238 250 L 238 240 L 239 239 L 239 229 L 240 228 L 240 220 L 241 219 L 240 218 L 235 218 L 234 217 L 233 218 L 232 217 "/>
<path style="fill:none;stroke-width:1;stroke-linecap:square;stroke-linejoin:miter;stroke:rgb(0%,0%,0%);stroke-opacity:1;stroke-miterlimit:10;" d="M 228 218 L 229 217 L 232 217 L 233 218 L 239 218 L 240 219 L 240 228 L 239 229 L 239 239 L 238 240 L 238 250 L 237 251 L 237 260 L 236 261 L 236 268 L 235 269 L 231 269 L 230 268 L 225 268 L 224 267 L 224 258 L 225 257 L 225 246 L 226 245 L 226 234 L 227 233 L 227 222 L 228 221 "/>
<path style="fill:none;stroke-width:1;stroke-linecap:square;stroke-linejoin:miter;stroke:rgb(0%,0%,0%);stroke-opacity:1;stroke-miterlimit:10;" d="M 191 214 L 191 219 L 190 220 L 190 233 L 191 234 L 199 234 L 200 235 L 203 235 L 203 229 L 204 228 L 205 228 L 206 229 L 206 235 L 205 236 L 205 247 L 204 248 L 204 257 L 206 259 L 206 260 L 209 263 L 209 264 L 213 268 L 214 268 L 214 259 L 215 258 L 215 246 L 216 245 L 216 234 L 217 233 L 217 229 L 214 229 L 213 228 L 204 228 L 203 227 L 202 227 L 200 225 L 200 217 L 201 216 L 201 215 L 200 214 "/>
<path style="fill:none;stroke-width:1;stroke-linecap:square;stroke-linejoin:miter;stroke:rgb(0%,0%,0%);stroke-opacity:1;stroke-miterlimit:10;" d="M 206 229 L 207 228 L 213 228 L 214 229 L 216 229 L 217 230 L 217 233 L 216 234 L 216 245 L 215 246 L 215 258 L 214 259 L 214 267 L 213 268 L 212 267 L 212 266 L 209 263 L 209 262 L 205 258 L 205 257 L 204 256 L 204 248 L 205 247 L 205 236 L 206 235 "/>
<path style="fill:none;stroke-width:1;stroke-linecap:square;stroke-linejoin:miter;stroke:rgb(0%,0%,0%);stroke-opacity:1;stroke-miterlimit:10;" d="M 191 215 L 192 214 L 199 214 L 201 216 L 200 217 L 200 226 L 201 227 L 202 227 L 203 228 L 203 234 L 202 235 L 200 235 L 199 234 L 192 234 L 190 232 L 190 220 L 191 219 "/>
<path style="fill:none;stroke-width:1;stroke-linecap:square;stroke-linejoin:miter;stroke:rgb(0%,0%,0%);stroke-opacity:1;stroke-miterlimit:10;" d="M 1 171 L 11 171 L 13 173 L 12 174 L 1 174 L 12 174 L 13 175 L 13 176 L 12 177 L 1 177 L 16 177 L 16 174 L 18 172 L 20 172 L 21 173 L 21 179 L 20 180 L 20 188 L 19 189 L 19 194 L 18 195 L 11 195 L 10 194 L 1 194 L 10 194 L 11 195 L 19 195 L 19 189 L 20 188 L 20 180 L 21 179 L 21 172 L 17 172 L 16 173 L 15 172 L 14 172 L 13 171 L 12 172 L 11 171 "/>
<path style="fill:none;stroke-width:1;stroke-linecap:square;stroke-linejoin:miter;stroke:rgb(0%,0%,0%);stroke-opacity:1;stroke-miterlimit:10;" d="M 13 173 L 14 172 L 15 172 L 16 173 L 16 176 L 15 177 L 14 177 L 13 176 L 13 175 L 14 174 "/>
<path style="fill:none;stroke-width:1;stroke-linecap:square;stroke-linejoin:miter;stroke:rgb(0%,0%,0%);stroke-opacity:1;stroke-miterlimit:10;" d="M 228 128 L 228 137 L 227 138 L 227 149 L 226 150 L 226 161 L 225 162 L 225 171 L 224 172 L 225 173 L 225 174 L 224 175 L 224 185 L 223 186 L 223 197 L 222 198 L 222 209 L 221 210 L 221 213 L 222 214 L 221 215 L 221 220 L 220 221 L 220 227 L 219 228 L 220 229 L 220 232 L 219 233 L 219 245 L 218 246 L 218 258 L 217 259 L 217 269 L 216 270 L 216 273 L 223 273 L 224 274 L 231 274 L 232 275 L 234 275 L 235 276 L 235 272 L 233 272 L 232 271 L 231 272 L 230 271 L 224 271 L 221 268 L 221 259 L 222 258 L 222 246 L 223 245 L 223 234 L 224 233 L 224 223 L 225 222 L 225 217 L 224 216 L 223 217 L 221 215 L 222 214 L 232 214 L 233 215 L 240 215 L 241 216 L 242 216 L 243 217 L 243 228 L 242 229 L 242 238 L 241 239 L 241 250 L 240 251 L 240 259 L 239 260 L 239 269 L 238 270 L 238 276 L 236 278 L 232 278 L 231 277 L 224 277 L 223 276 L 215 276 L 216 277 L 216 283 L 215 284 L 215 287 L 218 287 L 219 288 L 220 287 L 221 288 L 230 288 L 231 289 L 238 289 L 239 290 L 245 290 L 228 128 "/>
<path style="fill:none;stroke-width:1;stroke-linecap:square;stroke-linejoin:miter;stroke:rgb(0%,0%,0%);stroke-opacity:1;stroke-miterlimit:10;" d="M 221 217 L 222 216 L 223 217 L 224 217 L 225 218 L 225 222 L 224 223 L 224 233 L 223 234 L 223 245 L 222 246 L 222 258 L 221 259 L 221 269 L 222 270 L 223 270 L 224 271 L 230 271 L 231 272 L 234 272 L 235 273 L 235 274 L 234 275 L 232 275 L 231 274 L 224 274 L 223 273 L 217 273 L 216 272 L 216 270 L 217 269 L 217 259 L 218 258 L 218 246 L 219 245 L 219 233 L 220 232 L 220 229 L 219 228 L 220 227 L 220 221 L 221 220 "/>
<path style="fill:none;stroke-width:1;stroke-linecap:square;stroke-linejoin:miter;stroke:rgb(0%,0%,0%);stroke-opacity:1;stroke-miterlimit:10;" d="M 228 129 L 229 128 L 256 128 L 257 129 L 257 142 L 256 143 L 256 159 L 255 160 L 255 182 L 254 183 L 254 195 L 253 196 L 253 202 L 252 203 L 252 211 L 251 212 L 251 218 L 250 219 L 250 226 L 249 227 L 249 233 L 248 234 L 248 241 L 247 242 L 247 248 L 246 249 L 246 272 L 245 273 L 245 289 L 244 290 L 239 290 L 238 289 L 231 289 L 230 288 L 221 288 L 220 287 L 216 287 L 215 286 L 215 284 L 216 283 L 216 277 L 217 276 L 223 276 L 224 277 L 231 277 L 232 278 L 237 278 L 238 277 L 238 270 L 239 269 L 239 260 L 240 259 L 240 251 L 241 250 L 241 239 L 242 238 L 242 229 L 243 228 L 243 216 L 241 216 L 240 215 L 233 215 L 232 214 L 223 214 L 221 212 L 221 210 L 222 209 L 222 198 L 223 197 L 223 186 L 224 185 L 224 175 L 225 174 L 225 162 L 226 161 L 226 150 L 227 149 L 227 138 L 228 137 "/>
<path style="fill:none;stroke-width:1;stroke-linecap:square;stroke-linejoin:miter;stroke:rgb(0%,0%,0%);stroke-opacity:1;stroke-miterlimit:10;" d="M 313 122 L 312 123 L 285 123 L 284 124 L 277 124 L 276 125 L 276 127 L 275 128 L 275 140 L 274 141 L 274 155 L 273 156 L 273 169 L 272 170 L 272 184 L 271 185 L 271 198 L 270 199 L 270 214 L 269 215 L 269 227 L 268 228 L 268 242 L 267 243 L 267 257 L 266 258 L 266 268 L 265 269 L 265 274 L 264 275 L 264 280 L 263 281 L 263 286 L 262 287 L 262 291 L 261 292 L 261 297 L 260 298 L 260 302 L 259 303 L 259 308 L 258 309 L 258 314 L 257 315 L 257 320 L 256 321 L 256 325 L 255 326 L 255 331 L 254 332 L 254 336 L 253 337 L 253 341 L 252 342 L 252 347 L 251 348 L 251 353 L 250 354 L 250 359 L 249 360 L 249 364 L 248 365 L 248 368 L 248 365 L 249 364 L 249 360 L 250 359 L 250 354 L 251 353 L 251 348 L 252 347 L 252 342 L 253 341 L 253 337 L 254 336 L 254 332 L 255 331 L 255 326 L 256 325 L 256 321 L 257 320 L 257 316 L 258 315 L 258 309 L 259 308 L 259 303 L 260 302 L 260 298 L 261 297 L 261 292 L 262 291 L 262 287 L 263 286 L 263 281 L 264 280 L 264 275 L 265 274 L 313 122 "/>
<path style="fill:none;stroke-width:1;stroke-linecap:square;stroke-linejoin:miter;stroke:rgb(0%,0%,0%);stroke-opacity:1;stroke-miterlimit:10;" d="M 312 271 L 324 271 L 325 272 L 326 272 L 327 273 L 327 275 L 326 276 L 326 282 L 324 284 L 321 284 L 320 283 L 314 283 L 312 281 L 313 280 L 313 273 L 313 280 L 311 282 L 312 282 L 313 283 L 320 283 L 321 284 L 328 284 L 329 285 L 334 285 L 335 286 L 340 286 L 341 287 L 342 286 L 343 287 L 347 287 L 348 288 L 349 287 L 350 288 L 354 288 L 355 289 L 356 288 L 357 289 L 363 289 L 364 290 L 369 290 L 370 291 L 370 292 L 369 293 L 364 293 L 363 292 L 357 292 L 356 291 L 349 291 L 348 290 L 343 290 L 342 289 L 336 289 L 335 288 L 329 288 L 328 287 L 323 287 L 322 286 L 321 287 L 320 286 L 316 286 L 315 285 L 311 285 L 309 283 L 309 281 L 310 280 L 310 273 "/>
<path style="fill:none;stroke-width:1;stroke-linecap:square;stroke-linejoin:miter;stroke:rgb(0%,0%,0%);stroke-opacity:1;stroke-miterlimit:10;" d="M 287 269 L 288 268 L 289 268 L 290 269 L 290 272 L 289 273 L 289 276 L 288 277 L 289 278 L 288 279 L 288 284 L 287 285 L 287 291 L 286 292 L 286 297 L 285 298 L 285 301 L 284 302 L 285 303 L 284 304 L 284 309 L 283 310 L 283 316 L 282 317 L 282 322 L 281 323 L 281 328 L 280 329 L 280 335 L 279 336 L 279 341 L 278 342 L 278 347 L 277 348 L 277 353 L 276 354 L 276 358 L 275 359 L 275 366 L 273 368 L 271 366 L 272 365 L 272 361 L 273 360 L 273 354 L 274 353 L 274 348 L 275 347 L 275 342 L 276 341 L 276 336 L 277 335 L 277 329 L 278 328 L 278 323 L 279 322 L 279 317 L 280 316 L 280 310 L 281 309 L 281 304 L 282 303 L 282 299 L 283 298 L 283 293 L 284 292 L 284 285 L 285 284 L 285 279 L 286 278 L 286 273 L 287 272 "/>
<path style="fill:none;stroke-width:1;stroke-linecap:square;stroke-linejoin:miter;stroke:rgb(0%,0%,0%);stroke-opacity:1;stroke-miterlimit:10;" d="M 325 262 L 326 261 L 327 261 L 328 262 L 328 266 L 327 267 L 327 268 L 326 269 L 325 268 "/>
<path style="fill:none;stroke-width:1;stroke-linecap:square;stroke-linejoin:miter;stroke:rgb(0%,0%,0%);stroke-opacity:1;stroke-miterlimit:10;" d="M 326 259 L 327 258 L 329 258 L 331 260 L 331 266 L 330 267 L 330 273 L 329 274 L 330 275 L 329 276 L 329 282 L 327 284 L 326 283 L 326 276 L 327 275 L 327 267 L 328 266 L 328 261 L 327 261 L 326 260 "/>
<path style="fill:none;stroke-width:1;stroke-linecap:square;stroke-linejoin:miter;stroke:rgb(0%,0%,0%);stroke-opacity:1;stroke-miterlimit:10;" d="M 389 243 L 390 242 L 391 242 L 392 243 L 391 244 L 391 254 L 390 255 L 390 256 L 389 257 L 388 256 L 388 245 L 389 244 "/>
<path style="fill:none;stroke-width:1;stroke-linecap:square;stroke-linejoin:miter;stroke:rgb(0%,0%,0%);stroke-opacity:1;stroke-miterlimit:10;" d="M 328 243 L 329 242 L 333 242 L 334 243 L 341 243 L 342 244 L 350 244 L 351 245 L 358 245 L 359 246 L 368 246 L 369 247 L 376 247 L 377 248 L 378 248 L 380 250 L 379 251 L 379 259 L 378 260 L 378 270 L 377 271 L 377 275 L 375 277 L 372 277 L 372 278 L 371 279 L 371 286 L 370 287 L 370 289 L 369 290 L 364 290 L 363 289 L 357 289 L 356 288 L 350 288 L 349 287 L 343 287 L 342 286 L 335 286 L 334 285 L 330 285 L 328 283 L 329 282 L 329 276 L 330 275 L 330 267 L 331 266 L 331 259 L 330 258 L 328 258 L 326 256 L 326 255 L 327 254 L 327 246 L 328 245 "/>
<path style="fill:none;stroke-width:1;stroke-linecap:square;stroke-linejoin:miter;stroke:rgb(0%,0%,0%);stroke-opacity:1;stroke-miterlimit:10;" d="M 336 235 L 339 235 L 340 236 L 347 236 L 348 237 L 355 237 L 356 238 L 364 238 L 365 239 L 372 239 L 373 240 L 379 240 L 380 241 L 387 241 L 389 243 L 389 244 L 388 245 L 388 258 L 387 259 L 387 262 L 386 263 L 386 267 L 385 268 L 383 268 L 381 266 L 381 260 L 382 259 L 382 251 L 383 250 L 383 248 L 382 247 L 382 246 L 381 246 L 380 245 L 377 245 L 376 244 L 368 244 L 367 243 L 359 243 L 358 242 L 351 242 L 350 241 L 342 241 L 341 240 L 335 240 L 334 239 L 334 237 "/>
<path style="fill:none;stroke-width:1;stroke-linecap:square;stroke-linejoin:miter;stroke:rgb(0%,0%,0%);stroke-opacity:1;stroke-miterlimit:10;" d="M 396 217 L 397 217 L 398 218 L 406 218 L 407 219 L 414 219 L 416 221 L 416 230 L 415 231 L 415 237 L 414 238 L 414 245 L 413 246 L 413 254 L 412 255 L 412 258 L 411 259 L 405 259 L 404 258 L 397 258 L 396 257 L 391 257 L 390 256 L 390 255 L 391 254 L 391 244 L 392 243 L 392 236 L 393 235 L 393 226 L 394 225 L 394 219 "/>
<path style="fill:none;stroke-width:1;stroke-linecap:square;stroke-linejoin:miter;stroke:rgb(0%,0%,0%);stroke-opacity:1;stroke-miterlimit:10;" d="M 311 126 L 312 125 L 346 125 L 347 126 L 351 126 L 352 127 L 357 127 L 358 128 L 362 128 L 363 129 L 367 129 L 368 130 L 373 130 L 374 131 L 378 131 L 379 132 L 383 132 L 384 133 L 389 133 L 390 134 L 394 134 L 395 135 L 399 135 L 400 136 L 404 136 L 405 137 L 409 137 L 410 138 L 415 138 L 416 139 L 420 139 L 421 140 L 425 140 L 426 141 L 430 141 L 431 142 L 436 142 L 437 143 L 440 143 L 442 145 L 442 146 L 441 147 L 441 153 L 440 154 L 440 159 L 439 160 L 439 166 L 438 167 L 438 172 L 437 173 L 437 178 L 436 179 L 436 184 L 435 185 L 435 192 L 434 193 L 434 197 L 433 198 L 433 204 L 432 205 L 432 211 L 431 212 L 431 216 L 429 218 L 424 218 L 423 217 L 415 217 L 414 216 L 407 216 L 406 215 L 398 215 L 397 214 L 393 214 L 392 215 L 392 217 L 391 218 L 391 225 L 390 226 L 390 235 L 389 236 L 389 238 L 388 239 L 387 238 L 380 238 L 379 237 L 372 237 L 371 236 L 364 236 L 363 235 L 356 235 L 355 234 L 348 234 L 347 233 L 340 233 L 339 232 L 334 232 L 332 234 L 311 126 "/>
<path style="fill:none;stroke-width:1;stroke-linecap:square;stroke-linejoin:miter;stroke:rgb(0%,0%,0%);stroke-opacity:1;stroke-miterlimit:10;" d="M 1 107 L 8 107 L 9 108 L 16 108 L 17 109 L 24 109 L 25 110 L 33 110 L 34 111 L 40 111 L 42 113 L 42 118 L 41 119 L 41 125 L 40 126 L 40 131 L 39 132 L 39 139 L 38 140 L 38 146 L 37 147 L 37 154 L 36 155 L 36 161 L 35 162 L 35 168 L 33 170 L 23 170 L 22 169 L 12 169 L 11 168 L 1 168 L 11 168 L 12 169 L 22 169 L 23 170 L 35 170 L 35 162 L 36 161 L 36 155 L 37 154 L 37 147 L 38 146 L 38 140 L 39 139 L 39 132 L 40 131 L 40 126 L 41 125 L 41 120 L 42 119 L 42 112 L 41 112 L 40 111 L 34 111 L 33 110 L 25 110 L 24 109 L 17 109 L 16 108 L 9 108 L 8 107 "/>
<path style="fill:none;stroke-width:1;stroke-linecap:square;stroke-linejoin:miter;stroke:rgb(0%,0%,0%);stroke-opacity:1;stroke-miterlimit:10;" d="M 1 104 L 8 104 L 9 105 L 16 105 L 17 106 L 24 106 L 25 107 L 31 107 L 32 108 L 33 107 L 34 108 L 40 108 L 41 109 L 49 109 L 50 110 L 57 110 L 58 111 L 65 111 L 66 112 L 72 112 L 73 113 L 81 113 L 82 114 L 85 114 L 85 113 L 87 111 L 96 111 L 97 112 L 104 112 L 105 113 L 113 113 L 114 114 L 121 114 L 122 115 L 129 115 L 130 116 L 138 116 L 139 117 L 147 117 L 148 118 L 155 118 L 156 119 L 161 119 L 162 120 L 163 119 L 164 120 L 171 120 L 172 121 L 180 121 L 181 122 L 188 122 L 189 123 L 189 124 L 188 125 L 189 126 L 189 131 L 188 132 L 188 148 L 187 149 L 187 164 L 186 165 L 186 178 L 185 179 L 185 191 L 184 192 L 184 202 L 183 203 L 183 213 L 182 214 L 182 226 L 181 227 L 180 226 L 179 226 L 178 225 L 177 226 L 176 225 L 175 225 L 173 223 L 173 217 L 174 216 L 175 216 L 176 217 L 176 222 L 177 222 L 178 223 L 180 223 L 179 222 L 179 214 L 180 213 L 180 211 L 181 210 L 180 210 L 179 209 L 180 208 L 180 204 L 181 203 L 181 192 L 1 104 "/>
<path style="fill:none;stroke-width:1;stroke-linecap:square;stroke-linejoin:miter;stroke:rgb(0%,0%,0%);stroke-opacity:1;stroke-miterlimit:10;" d="M 170 282 L 171 283 L 172 283 L 173 284 L 173 286 L 172 287 L 172 292 L 171 293 L 171 301 L 170 302 L 170 311 L 169 312 L 169 321 L 168 322 L 168 329 L 167 330 L 167 331 L 166 332 L 164 332 L 163 331 L 163 324 L 164 323 L 164 317 L 165 316 L 165 308 L 166 307 L 166 300 L 167 299 L 167 292 L 168 291 L 168 284 "/>
<path style="fill:none;stroke-width:1;stroke-linecap:square;stroke-linejoin:miter;stroke:rgb(0%,0%,0%);stroke-opacity:1;stroke-miterlimit:10;" d="M 169 281 L 170 280 L 172 280 L 173 281 L 171 283 "/>
<path style="fill:none;stroke-width:1;stroke-linecap:square;stroke-linejoin:miter;stroke:rgb(0%,0%,0%);stroke-opacity:1;stroke-miterlimit:10;" d="M 211 272 L 212 271 L 213 272 L 212 273 "/>
<path style="fill:none;stroke-width:1;stroke-linecap:square;stroke-linejoin:miter;stroke:rgb(0%,0%,0%);stroke-opacity:1;stroke-miterlimit:10;" d="M 82 272 L 83 271 L 86 271 L 87 272 L 94 272 L 95 273 L 101 273 L 102 274 L 109 274 L 110 275 L 117 275 L 118 276 L 124 276 L 125 277 L 133 277 L 134 278 L 140 278 L 141 279 L 147 279 L 148 280 L 155 280 L 156 281 L 163 281 L 164 282 L 165 282 L 166 283 L 165 284 L 165 291 L 164 292 L 164 299 L 163 300 L 163 308 L 162 309 L 162 316 L 161 317 L 161 323 L 160 324 L 160 332 L 158 334 L 155 334 L 154 333 L 150 333 L 149 332 L 144 332 L 143 331 L 137 331 L 136 330 L 130 330 L 129 329 L 122 329 L 121 328 L 116 328 L 115 327 L 107 327 L 106 326 L 102 326 L 101 325 L 96 325 L 95 324 L 87 324 L 86 323 L 82 323 L 81 322 L 76 322 L 75 321 L 69 321 L 68 320 L 62 320 L 61 319 L 58 319 L 57 318 L 57 313 L 58 312 L 58 304 L 59 303 L 59 299 L 60 298 L 64 298 L 65 299 L 72 299 L 73 300 L 77 300 L 79 298 L 79 294 L 80 293 L 80 284 L 81 283 L 81 275 L 82 274 "/>
<path style="fill:none;stroke-width:1;stroke-linecap:square;stroke-linejoin:miter;stroke:rgb(0%,0%,0%);stroke-opacity:1;stroke-miterlimit:10;" d="M 62 270 L 63 269 L 70 269 L 71 270 L 77 270 L 79 272 L 79 275 L 78 276 L 78 283 L 77 284 L 77 294 L 76 295 L 76 296 L 75 297 L 73 297 L 72 296 L 65 296 L 64 295 L 61 295 L 60 294 L 60 284 L 61 283 L 61 273 L 62 272 "/>
<path style="fill:none;stroke-width:1;stroke-linecap:square;stroke-linejoin:miter;stroke:rgb(0%,0%,0%);stroke-opacity:1;stroke-miterlimit:10;" d="M 59 269 L 60 268 L 62 270 L 62 272 L 61 273 L 61 283 L 60 284 L 60 293 L 59 294 L 60 295 L 64 295 L 65 296 L 72 296 L 73 297 L 76 297 L 76 296 L 77 295 L 77 284 L 78 283 L 78 276 L 79 275 L 79 272 L 80 271 L 81 271 L 82 272 L 82 274 L 81 275 L 81 283 L 80 284 L 80 293 L 79 294 L 79 297 L 76 300 L 73 300 L 72 299 L 65 299 L 64 298 L 59 298 L 59 303 L 58 304 L 58 305 L 57 306 L 55 304 L 56 303 L 56 297 L 57 296 L 57 285 L 58 284 L 58 274 L 59 273 "/>
<path style="fill:none;stroke-width:1;stroke-linecap:square;stroke-linejoin:miter;stroke:rgb(0%,0%,0%);stroke-opacity:1;stroke-miterlimit:10;" d="M 12 263 L 13 262 L 16 262 L 17 263 L 25 263 L 26 264 L 31 264 L 32 265 L 41 265 L 42 266 L 47 266 L 48 267 L 55 267 L 56 268 L 58 268 L 59 269 L 59 273 L 58 274 L 58 284 L 57 285 L 57 296 L 56 297 L 56 303 L 55 304 L 55 305 L 54 306 L 51 306 L 50 305 L 50 304 L 49 303 L 49 300 L 44 300 L 43 299 L 38 299 L 36 297 L 36 292 L 37 291 L 37 287 L 38 286 L 38 279 L 39 278 L 39 272 L 38 271 L 36 271 L 35 270 L 27 270 L 26 269 L 18 269 L 17 268 L 13 268 L 12 267 "/>
<path style="fill:none;stroke-width:1;stroke-linecap:square;stroke-linejoin:miter;stroke:rgb(0%,0%,0%);stroke-opacity:1;stroke-miterlimit:10;" d="M 178 262 L 179 261 L 182 261 L 183 262 L 188 262 L 189 263 L 189 264 L 190 265 L 190 266 L 194 270 L 194 271 L 197 274 L 202 274 L 203 275 L 212 275 L 213 276 L 213 283 L 212 284 L 212 285 L 211 286 L 204 286 L 203 285 L 191 285 L 190 286 L 190 288 L 189 289 L 189 290 L 188 291 L 185 291 L 184 290 L 184 287 L 183 286 L 182 286 L 181 285 L 177 285 L 175 283 L 175 282 L 176 281 L 176 273 L 177 272 L 177 264 L 178 263 "/>
<path style="fill:none;stroke-width:1;stroke-linecap:square;stroke-linejoin:miter;stroke:rgb(0%,0%,0%);stroke-opacity:1;stroke-miterlimit:10;" d="M 24 249 L 25 248 L 26 248 L 27 249 L 26 250 L 26 257 L 25 258 L 25 259 L 24 260 L 22 258 L 23 257 L 23 251 L 24 250 "/>
<path style="fill:none;stroke-width:1;stroke-linecap:square;stroke-linejoin:miter;stroke:rgb(0%,0%,0%);stroke-opacity:1;stroke-miterlimit:10;" d="M 12 247 L 13 246 L 14 247 L 21 247 L 22 248 L 23 248 L 24 249 L 24 250 L 23 251 L 23 257 L 22 258 L 22 259 L 21 260 L 17 260 L 16 259 L 12 259 L 11 258 L 11 249 L 12 248 "/>
<path style="fill:none;stroke-width:1;stroke-linecap:square;stroke-linejoin:miter;stroke:rgb(0%,0%,0%);stroke-opacity:1;stroke-miterlimit:10;" d="M 9 247 L 10 246 L 12 248 L 11 249 L 11 257 L 10 258 L 9 258 L 8 257 L 8 249 L 9 248 "/>
<path style="fill:none;stroke-width:1;stroke-linecap:square;stroke-linejoin:miter;stroke:rgb(0%,0%,0%);stroke-opacity:1;stroke-miterlimit:10;" d="M 194 244 L 195 243 L 201 243 L 202 244 L 202 247 L 201 248 L 201 258 L 204 261 L 204 262 L 208 266 L 208 267 L 212 271 L 211 272 L 202 272 L 201 271 L 199 271 L 195 267 L 195 266 L 192 263 L 192 260 L 193 259 L 193 252 L 194 251 "/>
<path style="fill:none;stroke-width:1;stroke-linecap:square;stroke-linejoin:miter;stroke:rgb(0%,0%,0%);stroke-opacity:1;stroke-miterlimit:10;" d="M 11 243 L 12 244 L 12 246 L 11 247 L 9 245 "/>
<path style="fill:none;stroke-width:1;stroke-linecap:square;stroke-linejoin:miter;stroke:rgb(0%,0%,0%);stroke-opacity:1;stroke-miterlimit:10;" d="M 45 238 L 46 237 L 47 238 L 55 238 L 56 239 L 57 239 L 58 240 L 56 242 L 55 241 L 47 241 L 45 239 "/>
<path style="fill:none;stroke-width:1;stroke-linecap:square;stroke-linejoin:miter;stroke:rgb(0%,0%,0%);stroke-opacity:1;stroke-miterlimit:10;" d="M 175 234 L 176 234 L 178 236 L 178 237 L 177 238 L 177 245 L 176 246 L 176 254 L 175 255 L 175 264 L 174 265 L 174 272 L 173 273 L 173 279 L 172 280 L 171 280 L 169 278 L 169 275 L 170 274 L 170 264 L 171 263 L 171 254 L 172 253 L 172 245 L 173 244 L 173 236 "/>
<path style="fill:none;stroke-width:1;stroke-linecap:square;stroke-linejoin:miter;stroke:rgb(0%,0%,0%);stroke-opacity:1;stroke-miterlimit:10;" d="M 177 234 L 178 233 L 179 234 L 178 235 "/>
<path style="fill:none;stroke-width:1;stroke-linecap:square;stroke-linejoin:miter;stroke:rgb(0%,0%,0%);stroke-opacity:1;stroke-miterlimit:10;" d="M 171 233 L 172 232 L 173 232 L 174 233 L 174 234 L 173 235 L 173 244 L 172 245 L 172 253 L 171 254 L 171 263 L 170 264 L 170 274 L 169 275 L 169 279 L 170 280 L 169 281 L 169 282 L 168 283 L 167 282 L 166 282 L 165 281 L 166 280 L 166 274 L 167 273 L 167 265 L 168 264 L 168 254 L 169 253 L 169 245 L 170 244 L 170 235 L 171 234 "/>
<path style="fill:none;stroke-width:1;stroke-linecap:square;stroke-linejoin:miter;stroke:rgb(0%,0%,0%);stroke-opacity:1;stroke-miterlimit:10;" d="M 173 232 L 174 231 L 176 231 L 178 233 L 177 234 L 175 234 "/>
<path style="fill:none;stroke-width:1;stroke-linecap:square;stroke-linejoin:miter;stroke:rgb(0%,0%,0%);stroke-opacity:1;stroke-miterlimit:10;" d="M 183 226 L 184 227 L 186 227 L 187 228 L 187 234 L 188 235 L 188 236 L 190 236 L 191 237 L 199 237 L 200 238 L 201 238 L 202 239 L 201 240 L 192 240 L 192 241 L 191 242 L 191 251 L 190 252 L 190 258 L 189 259 L 183 259 L 182 258 L 179 258 L 178 257 L 178 255 L 179 254 L 179 246 L 180 245 L 180 237 L 181 236 L 180 235 L 180 234 L 181 233 L 181 228 "/>
<path style="fill:none;stroke-width:1;stroke-linecap:square;stroke-linejoin:miter;stroke:rgb(0%,0%,0%);stroke-opacity:1;stroke-miterlimit:10;" d="M 180 226 L 181 227 L 181 233 L 180 234 L 179 234 L 178 233 L 178 228 "/>
<path style="fill:none;stroke-width:1;stroke-linecap:square;stroke-linejoin:miter;stroke:rgb(0%,0%,0%);stroke-opacity:1;stroke-miterlimit:10;" d="M 165 209 L 166 208 L 172 208 L 173 209 L 178 209 L 180 211 L 180 213 L 179 214 L 179 222 L 178 223 L 176 221 L 176 216 L 177 215 L 176 214 L 176 213 L 174 213 L 173 212 L 168 212 L 167 211 L 166 211 L 165 210 "/>
<path style="fill:none;stroke-width:1;stroke-linecap:square;stroke-linejoin:miter;stroke:rgb(0%,0%,0%);stroke-opacity:1;stroke-miterlimit:10;" d="M 63 206 L 64 206 L 65 207 L 64 208 L 64 217 L 63 218 L 63 226 L 62 227 L 62 235 L 61 236 L 61 240 L 59 242 L 58 242 L 57 241 L 58 240 L 58 236 L 59 235 L 59 230 L 60 229 L 59 228 L 59 227 L 60 226 L 60 218 L 61 217 L 61 208 "/>
<path style="fill:none;stroke-width:1;stroke-linecap:square;stroke-linejoin:miter;stroke:rgb(0%,0%,0%);stroke-opacity:1;stroke-miterlimit:10;" d="M 33 203 L 34 202 L 40 202 L 41 203 L 48 203 L 49 204 L 56 204 L 57 205 L 61 205 L 62 206 L 62 207 L 61 208 L 61 217 L 60 218 L 60 226 L 59 227 L 59 235 L 58 236 L 58 238 L 57 239 L 56 239 L 55 238 L 47 238 L 46 237 L 45 238 L 43 238 L 42 239 L 42 241 L 41 242 L 41 249 L 40 250 L 40 258 L 39 259 L 39 261 L 38 262 L 32 262 L 31 261 L 27 261 L 25 259 L 25 258 L 26 257 L 26 250 L 27 249 L 26 248 L 27 247 L 27 243 L 28 242 L 28 236 L 29 235 L 29 228 L 30 227 L 30 221 L 31 220 L 31 213 L 32 212 L 32 206 L 33 205 "/>
<path style="fill:none;stroke-width:1;stroke-linecap:square;stroke-linejoin:miter;stroke:rgb(0%,0%,0%);stroke-opacity:1;stroke-miterlimit:10;" d="M 32 197 L 34 199 L 38 199 L 39 200 L 40 199 L 41 200 L 48 200 L 49 201 L 55 201 L 56 202 L 62 202 L 65 205 L 64 206 L 63 206 L 62 205 L 57 205 L 56 204 L 49 204 L 48 203 L 41 203 L 40 202 L 33 202 L 33 205 L 32 206 L 32 211 L 31 212 L 31 217 L 30 218 L 31 219 L 31 220 L 30 221 L 30 227 L 29 228 L 29 235 L 28 236 L 28 242 L 27 243 L 27 247 L 26 248 L 24 248 L 23 247 L 22 248 L 21 247 L 14 247 L 12 245 L 13 244 L 21 244 L 22 245 L 24 245 L 25 244 L 24 243 L 25 242 L 25 236 L 26 235 L 26 228 L 27 227 L 27 221 L 28 220 L 28 213 L 29 212 L 29 206 L 30 205 L 30 201 L 31 200 L 30 199 "/>
<path style="fill:none;stroke-width:1;stroke-linecap:square;stroke-linejoin:miter;stroke:rgb(0%,0%,0%);stroke-opacity:1;stroke-miterlimit:10;" d="M 35 195 L 70 195 L 71 196 L 78 196 L 79 197 L 86 197 L 87 198 L 93 198 L 94 199 L 101 199 L 102 200 L 105 200 L 107 202 L 107 206 L 106 207 L 106 221 L 107 222 L 113 222 L 114 223 L 120 223 L 121 224 L 127 224 L 128 225 L 134 225 L 135 226 L 141 226 L 142 227 L 148 227 L 149 228 L 156 228 L 157 229 L 160 229 L 161 228 L 162 228 L 162 227 L 163 226 L 163 219 L 164 218 L 164 215 L 165 214 L 168 214 L 169 215 L 172 215 L 173 216 L 173 224 L 174 225 L 176 225 L 177 226 L 178 226 L 179 227 L 178 228 L 178 231 L 177 232 L 176 231 L 174 231 L 173 232 L 171 232 L 171 234 L 170 235 L 170 244 L 169 245 L 169 253 L 168 254 L 168 264 L 167 265 L 167 273 L 166 274 L 166 278 L 165 279 L 164 279 L 163 278 L 156 278 L 155 277 L 149 277 L 148 276 L 141 276 L 140 275 L 133 275 L 132 274 L 125 274 L 124 273 L 117 273 L 116 272 L 110 272 L 109 271 L 102 271 L 101 270 L 95 270 L 94 269 L 87 269 L 86 268 L 79 268 L 78 267 L 71 267 L 70 266 L 61 266 L 60 265 L 35 195 "/>
<path style="fill:none;stroke-width:1;stroke-linecap:square;stroke-linejoin:miter;stroke:rgb(0%,0%,0%);stroke-opacity:1;stroke-miterlimit:10;" d="M 31 193 L 32 192 L 69 192 L 70 193 L 78 193 L 79 194 L 86 194 L 87 195 L 93 195 L 94 196 L 99 196 L 100 197 L 101 196 L 102 197 L 107 197 L 110 200 L 110 205 L 109 206 L 109 217 L 108 218 L 109 219 L 112 219 L 113 220 L 120 220 L 121 221 L 127 221 L 128 222 L 132 222 L 133 223 L 134 222 L 135 223 L 141 223 L 142 224 L 148 224 L 149 225 L 156 225 L 157 226 L 160 226 L 160 220 L 161 219 L 161 213 L 162 212 L 162 207 L 164 205 L 171 205 L 172 206 L 179 206 L 180 207 L 180 208 L 179 209 L 173 209 L 172 208 L 165 208 L 164 209 L 165 210 L 164 211 L 165 212 L 166 211 L 167 211 L 168 212 L 173 212 L 174 213 L 175 213 L 177 215 L 176 216 L 174 216 L 173 215 L 170 215 L 169 214 L 164 214 L 164 218 L 163 219 L 163 226 L 160 229 L 159 229 L 158 228 L 157 229 L 156 228 L 149 228 L 148 227 L 142 227 L 141 226 L 135 226 L 134 225 L 128 225 L 127 224 L 121 224 L 120 223 L 115 223 L 114 222 L 108 222 L 106 220 L 106 207 L 107 206 L 107 201 L 106 200 L 102 200 L 31 193 "/>
<path style="fill:none;stroke-width:1;stroke-linecap:square;stroke-linejoin:miter;stroke:rgb(0%,0%,0%);stroke-opacity:1;stroke-miterlimit:10;" d="M 34 174 L 35 173 L 37 175 L 36 176 L 36 182 L 35 183 L 35 190 L 33 192 L 32 191 L 32 184 L 33 183 L 33 176 L 34 175 "/>
<path style="fill:none;stroke-width:1;stroke-linecap:square;stroke-linejoin:miter;stroke:rgb(0%,0%,0%);stroke-opacity:1;stroke-miterlimit:10;" d="M 24 174 L 25 173 L 33 173 L 34 174 L 34 175 L 33 176 L 33 183 L 32 184 L 32 192 L 31 193 L 31 195 L 30 196 L 24 196 L 22 194 L 22 189 L 23 188 L 23 179 L 24 178 "/>
<path style="fill:none;stroke-width:1;stroke-linecap:square;stroke-linejoin:miter;stroke:rgb(0%,0%,0%);stroke-opacity:1;stroke-miterlimit:10;" d="M 45 113 L 46 112 L 49 112 L 50 113 L 57 113 L 58 114 L 65 114 L 66 115 L 73 115 L 74 116 L 81 116 L 82 117 L 85 117 L 86 116 L 87 116 L 87 115 L 88 114 L 96 114 L 97 115 L 104 115 L 105 116 L 113 116 L 114 117 L 122 117 L 123 118 L 130 118 L 131 119 L 139 119 L 140 120 L 147 120 L 148 121 L 155 121 L 156 122 L 163 122 L 164 123 L 172 123 L 173 124 L 180 124 L 181 125 L 185 125 L 186 126 L 186 132 L 185 133 L 185 148 L 184 149 L 184 164 L 183 165 L 183 179 L 182 180 L 182 191 L 181 192 L 181 203 L 180 204 L 180 205 L 179 206 L 172 206 L 171 205 L 163 205 L 163 206 L 162 207 L 162 212 L 161 213 L 161 219 L 160 220 L 160 225 L 159 226 L 157 226 L 156 225 L 149 225 L 148 224 L 142 224 L 141 223 L 135 223 L 134 222 L 128 222 L 127 221 L 121 221 L 120 220 L 113 220 L 112 219 L 110 219 L 109 218 L 109 206 L 110 205 L 110 200 L 109 199 L 109 198 L 108 198 L 107 197 L 102 197 L 101 196 L 94 196 L 93 195 L 87 195 L 86 194 L 79 194 L 78 193 L 45 113 "/>
<path style="fill:none;stroke-width:1;stroke-linecap:square;stroke-linejoin:miter;stroke:rgb(0%,0%,0%);stroke-opacity:1;stroke-miterlimit:10;" d="M 1 29 L 2 29 L 3 30 L 15 30 L 16 31 L 23 31 L 24 32 L 24 37 L 23 38 L 23 51 L 22 52 L 22 64 L 21 65 L 21 74 L 20 75 L 20 78 L 19 79 L 18 78 L 12 78 L 11 77 L 11 66 L 10 66 L 9 65 L 1 65 L 8 65 L 9 66 L 10 66 L 11 67 L 11 76 L 9 78 L 8 77 L 8 68 L 1 68 L 7 68 L 8 69 L 8 77 L 7 78 L 4 78 L 3 77 L 1 77 L 3 77 L 4 78 L 6 78 L 7 79 L 8 78 L 9 78 L 10 77 L 11 78 L 18 78 L 19 79 L 20 79 L 20 75 L 21 74 L 21 65 L 22 64 L 22 52 L 23 51 L 23 38 L 24 37 L 24 31 L 16 31 L 15 30 L 3 30 L 2 29 "/>
<path style="fill:none;stroke-width:1;stroke-linecap:square;stroke-linejoin:miter;stroke:rgb(0%,0%,0%);stroke-opacity:1;stroke-miterlimit:10;" d="M 383 1 L 384 2 L 384 7 L 381 10 L 377 10 L 376 11 L 373 11 L 372 12 L 368 12 L 367 13 L 365 13 L 364 14 L 360 14 L 359 15 L 355 15 L 354 16 L 349 16 L 348 17 L 346 17 L 345 18 L 340 18 L 339 19 L 335 19 L 334 20 L 330 20 L 329 21 L 326 21 L 325 22 L 323 22 L 323 23 L 324 24 L 324 28 L 322 30 L 319 30 L 318 31 L 318 41 L 316 43 L 309 43 L 308 42 L 308 41 L 309 40 L 315 40 L 315 31 L 318 28 L 320 28 L 321 27 L 321 23 L 317 23 L 316 24 L 313 24 L 312 25 L 308 25 L 307 26 L 308 27 L 308 39 L 307 40 L 308 41 L 308 43 L 307 44 L 308 45 L 308 54 L 312 54 L 313 55 L 314 54 L 315 55 L 322 55 L 323 56 L 331 56 L 332 57 L 338 57 L 339 58 L 346 58 L 347 59 L 353 59 L 354 60 L 361 60 L 362 61 L 370 61 L 371 62 L 377 62 L 378 63 L 385 63 L 386 64 L 391 64 L 392 65 L 393 64 L 394 65 L 401 65 L 402 66 L 404 66 L 405 65 L 405 59 L 406 58 L 406 51 L 407 50 L 407 45 L 406 44 L 383 1 "/>
<path style="fill:none;stroke-width:1;stroke-linecap:square;stroke-linejoin:miter;stroke:rgb(0%,0%,0%);stroke-opacity:1;stroke-miterlimit:10;" d="M 316 24 L 317 23 L 320 23 L 321 24 L 321 26 L 319 28 L 317 28 L 316 29 L 316 30 L 315 31 L 315 39 L 314 40 L 309 40 L 308 39 L 308 26 L 309 25 L 312 25 L 313 24 "/>
<path style="fill:none;stroke-width:1;stroke-linecap:square;stroke-linejoin:miter;stroke:rgb(0%,0%,0%);stroke-opacity:1;stroke-miterlimit:10;" d="M 381 1 L 381 6 L 380 7 L 378 7 L 377 8 L 374 8 L 373 9 L 369 9 L 368 10 L 365 10 L 364 11 L 360 11 L 359 12 L 355 12 L 354 13 L 350 13 L 349 14 L 346 14 L 345 15 L 341 15 L 340 16 L 336 16 L 335 17 L 331 17 L 330 18 L 327 18 L 326 19 L 323 19 L 322 20 L 317 20 L 316 21 L 313 21 L 312 22 L 308 22 L 307 23 L 306 23 L 305 24 L 305 55 L 306 56 L 308 56 L 309 57 L 315 57 L 316 58 L 322 58 L 323 59 L 331 59 L 332 60 L 338 60 L 339 61 L 346 61 L 347 62 L 353 62 L 354 63 L 361 63 L 362 64 L 370 64 L 371 65 L 377 65 L 378 66 L 385 66 L 386 67 L 393 67 L 394 68 L 401 68 L 402 69 L 406 69 L 407 68 L 407 65 L 408 64 L 408 58 L 409 57 L 409 51 L 410 50 L 410 45 L 409 44 L 409 39 L 408 38 L 408 32 L 407 31 L 407 26 L 406 25 L 406 19 L 405 18 L 405 13 L 404 12 L 404 5 L 403 4 L 403 1 L 403 4 L 404 5 L 404 12 L 405 13 L 405 19 L 406 20 L 406 25 L 407 26 L 407 31 L 381 1 "/>
<path style="fill:none;stroke-width:1;stroke-linecap:square;stroke-linejoin:miter;stroke:rgb(0%,0%,0%);stroke-opacity:1;stroke-miterlimit:10;" d="M 283 1 L 283 13 L 284 14 L 284 17 L 283 18 L 283 22 L 284 23 L 284 58 L 283 59 L 283 89 L 282 90 L 282 95 L 283 96 L 293 96 L 294 97 L 306 97 L 307 98 L 318 98 L 319 99 L 332 99 L 333 100 L 345 100 L 346 101 L 358 101 L 359 102 L 371 102 L 372 103 L 383 103 L 384 104 L 397 104 L 398 105 L 411 105 L 412 106 L 424 106 L 425 107 L 437 107 L 438 108 L 451 108 L 452 109 L 459 109 L 452 109 L 451 108 L 438 108 L 437 107 L 425 107 L 424 106 L 412 106 L 411 105 L 398 105 L 397 104 L 384 104 L 383 103 L 372 103 L 371 102 L 359 102 L 358 101 L 346 101 L 345 100 L 333 100 L 332 99 L 319 99 L 318 98 L 307 98 L 306 97 L 294 97 L 293 96 L 284 96 L 282 94 L 282 90 L 283 89 L 283 59 L 284 58 L 284 23 L 283 22 L 283 18 L 284 17 L 284 14 L 283 13 "/>
<path style="fill:none;stroke-width:1;stroke-linecap:square;stroke-linejoin:miter;stroke:rgb(0%,0%,0%);stroke-opacity:1;stroke-miterlimit:10;" d="M 234 1 L 234 3 L 233 4 L 233 21 L 232 22 L 232 37 L 242 37 L 243 38 L 264 38 L 265 39 L 281 39 L 281 22 L 280 21 L 280 19 L 281 18 L 281 14 L 280 13 L 280 1 L 280 13 L 281 14 L 281 17 L 279 19 L 278 18 L 278 10 L 277 9 L 277 1 L 277 9 L 278 10 L 278 17 L 277 18 L 278 19 L 279 19 L 280 20 L 280 21 L 279 22 L 278 21 L 277 21 L 275 19 L 275 11 L 274 10 L 274 1 L 274 10 L 275 11 L 275 20 L 276 21 L 278 21 L 279 22 L 280 22 L 281 23 L 281 38 L 280 39 L 265 39 L 264 38 L 243 38 L 242 37 L 233 37 L 232 36 L 232 22 L 233 21 L 233 4 L 234 3 "/>
<path style="fill:none;stroke-width:1;stroke-linecap:square;stroke-linejoin:miter;stroke:rgb(0%,0%,0%);stroke-opacity:1;stroke-miterlimit:10;" d="M 102 1 L 102 25 L 101 26 L 101 42 L 102 43 L 118 43 L 119 44 L 136 44 L 137 45 L 151 45 L 152 46 L 158 46 L 159 45 L 158 44 L 158 39 L 159 38 L 159 20 L 162 17 L 187 17 L 187 1 L 187 16 L 186 17 L 162 17 L 161 18 L 160 18 L 159 19 L 159 38 L 158 39 L 158 45 L 157 46 L 152 46 L 151 45 L 137 45 L 136 44 L 119 44 L 118 43 L 103 43 L 101 41 L 101 26 L 102 25 "/>
<path style="fill:none;stroke-width:1;stroke-linecap:square;stroke-linejoin:miter;stroke:rgb(0%,0%,0%);stroke-opacity:1;stroke-miterlimit:10;" d="M 57 1 L 57 14 L 56 15 L 56 34 L 55 35 L 55 57 L 54 58 L 54 80 L 53 81 L 46 81 L 45 80 L 38 80 L 37 79 L 38 78 L 38 61 L 39 60 L 39 45 L 40 44 L 40 30 L 39 30 L 38 29 L 25 29 L 24 28 L 15 28 L 14 27 L 3 27 L 2 26 L 1 26 L 2 26 L 3 27 L 14 27 L 15 28 L 24 28 L 25 29 L 26 29 L 27 30 L 27 37 L 26 38 L 26 51 L 25 52 L 25 64 L 24 65 L 24 74 L 23 75 L 23 79 L 31 79 L 32 80 L 34 80 L 35 81 L 33 83 L 32 83 L 31 82 L 22 82 L 21 81 L 4 81 L 3 80 L 1 80 L 3 80 L 4 81 L 21 81 L 22 82 L 31 82 L 32 83 L 33 83 L 34 82 L 35 83 L 46 83 L 47 84 L 61 84 L 62 85 L 78 85 L 79 86 L 90 86 L 91 87 L 103 87 L 104 88 L 117 88 L 118 89 L 131 89 L 132 90 L 144 90 L 145 91 L 158 91 L 159 92 L 171 92 L 172 93 L 188 93 L 189 94 L 198 94 L 199 95 L 219 95 L 220 96 L 245 96 L 246 97 L 273 97 L 274 98 L 282 98 L 57 1 "/>
<path style="fill:none;stroke-width:1;stroke-linecap:square;stroke-linejoin:miter;stroke:rgb(0%,0%,0%);stroke-opacity:1;stroke-miterlimit:10;" d="M 36 80 L 45 80 L 46 81 L 55 81 L 56 80 L 58 82 L 59 81 L 61 81 L 62 82 L 77 82 L 78 83 L 90 83 L 91 84 L 103 84 L 104 85 L 117 85 L 118 86 L 130 86 L 131 87 L 144 87 L 145 88 L 157 88 L 158 89 L 171 89 L 172 90 L 184 90 L 185 91 L 186 91 L 187 92 L 186 93 L 172 93 L 171 92 L 159 92 L 158 91 L 145 91 L 144 90 L 132 90 L 131 89 L 118 89 L 117 88 L 104 88 L 103 87 L 91 87 L 90 86 L 79 86 L 78 85 L 62 85 L 61 84 L 47 84 L 46 83 L 35 83 L 34 82 "/>
<path style="fill:none;stroke-width:1;stroke-linecap:square;stroke-linejoin:miter;stroke:rgb(0%,0%,0%);stroke-opacity:1;stroke-miterlimit:10;" d="M 34 80 L 35 79 L 36 80 L 35 81 "/>
<path style="fill:none;stroke-width:1;stroke-linecap:square;stroke-linejoin:miter;stroke:rgb(0%,0%,0%);stroke-opacity:1;stroke-miterlimit:10;" d="M 27 30 L 28 29 L 38 29 L 40 31 L 40 44 L 39 45 L 39 60 L 38 61 L 38 78 L 36 80 L 35 79 L 35 62 L 36 61 L 36 45 L 37 44 L 37 32 L 29 32 L 36 32 L 37 33 L 37 44 L 36 45 L 36 61 L 35 62 L 35 78 L 33 80 L 32 80 L 31 79 L 24 79 L 23 78 L 23 75 L 24 74 L 24 65 L 25 64 L 25 52 L 26 51 L 26 38 L 27 37 "/>
</g>
</svg>
